<svg width="27" height="27" viewBox="0 0 27 27" fill="none" xmlns="http://www.w3.org/2000/svg">
<g clip-path="url(#clip0_16_201)">
<path d="M5.98377 16.3165L5.04394 19.825L1.60887 19.8977C0.582293 17.9936 0 15.8151 0 13.5C0 11.2614 0.54443 9.15034 1.50947 7.2915H1.51021L4.56838 7.85218L5.90804 10.892C5.62765 11.7094 5.47483 12.5869 5.47483 13.5C5.47493 14.491 5.65444 15.4405 5.98377 16.3165Z" fill="#FBBB00"/>
<path d="M26.7641 10.978C26.9191 11.7947 27 12.6381 27 13.5C27 14.4665 26.8983 15.4093 26.7048 16.3187C26.0476 19.4133 24.3304 22.1155 21.9516 24.0278L21.9509 24.027L18.0989 23.8305L17.5538 20.4273C19.1322 19.5016 20.3658 18.0529 21.0156 16.3187H13.7968V10.978H21.1209H26.7641Z" fill="#518EF8"/>
<path d="M21.9509 24.027L21.9516 24.0278C19.6381 25.8873 16.6992 27 13.5 27C8.35889 27 3.88907 24.1264 1.60889 19.8977L5.98378 16.3165C7.12385 19.3591 10.059 21.5251 13.5 21.5251C14.9791 21.5251 16.3647 21.1253 17.5537 20.4273L21.9509 24.027Z" fill="#28B446"/>
<path d="M22.1171 3.10795L17.7436 6.68841C16.5131 5.91922 15.0585 5.47488 13.5001 5.47488C9.98114 5.47488 6.9911 7.74019 5.90815 10.892L1.51026 7.29148H1.50952C3.75632 2.95961 8.28251 0 13.5001 0C16.7756 0 19.779 1.1668 22.1171 3.10795Z" fill="#F14336"/>
</g>
<defs>
<clipPath id="clip0_16_201">
<rect width="27" height="27" fill="white"/>
</clipPath>
</defs>
</svg>
