<svg width="1512" height="982" viewBox="0 0 1512 982" fill="none" xmlns="http://www.w3.org/2000/svg">
<g opacity="0.5">
<mask id="mask0_15_776" style="mask-type:alpha" maskUnits="userSpaceOnUse" x="0" y="0" width="1512" height="982">
<rect width="1512" height="982" rx="31" fill="url(#paint0_radial_15_776)"/>
</mask>
<g mask="url(#mask0_15_776)">
<line x1="72.1243" y1="972.731" x2="72.1243" y2="-258.543" stroke="#164863" stroke-width="0.25"/>
<line x1="144.374" y1="972.731" x2="144.374" y2="-258.543" stroke="#164863" stroke-width="0.25"/>
<line x1="216.623" y1="972.731" x2="216.623" y2="-258.543" stroke="#164863" stroke-width="0.25"/>
<line x1="288.872" y1="972.731" x2="288.872" y2="-258.543" stroke="#164863" stroke-width="0.25"/>
<line x1="361.122" y1="972.731" x2="361.122" y2="-258.543" stroke="#164863" stroke-width="0.25"/>
<line x1="433.371" y1="972.731" x2="433.371" y2="-258.543" stroke="#164863" stroke-width="0.25"/>
<line x1="505.62" y1="972.731" x2="505.62" y2="-258.543" stroke="#164863" stroke-width="0.25"/>
<line x1="577.87" y1="972.731" x2="577.87" y2="-258.543" stroke="#164863" stroke-width="0.25"/>
<line x1="650.119" y1="972.731" x2="650.119" y2="-258.543" stroke="#164863" stroke-width="0.25"/>
<line x1="722.368" y1="972.731" x2="722.368" y2="-258.543" stroke="#164863" stroke-width="0.25"/>
<line x1="794.617" y1="972.731" x2="794.617" y2="-258.543" stroke="#164863" stroke-width="0.25"/>
<line x1="866.867" y1="972.731" x2="866.867" y2="-258.543" stroke="#164863" stroke-width="0.25"/>
<line x1="939.116" y1="972.731" x2="939.116" y2="-258.543" stroke="#164863" stroke-width="0.25"/>
<line x1="1011.37" y1="972.731" x2="1011.37" y2="-258.543" stroke="#164863" stroke-width="0.25"/>
<line x1="1083.61" y1="972.731" x2="1083.61" y2="-258.543" stroke="#164863" stroke-width="0.25"/>
<line x1="1155.86" y1="972.731" x2="1155.86" y2="-258.543" stroke="#164863" stroke-width="0.25"/>
<line x1="1228.11" y1="972.731" x2="1228.11" y2="-258.543" stroke="#164863" stroke-width="0.25"/>
<line x1="1300.36" y1="972.731" x2="1300.36" y2="-258.543" stroke="#164863" stroke-width="0.25"/>
<line x1="1372.61" y1="972.731" x2="1372.61" y2="-258.543" stroke="#164863" stroke-width="0.25"/>
<line x1="1444.86" y1="972.731" x2="1444.86" y2="-258.543" stroke="#164863" stroke-width="0.25"/>
<line x1="1507.81" y1="976.407" x2="0.00012207" y2="976.407" stroke="#164863" stroke-width="0.25"/>
<line x1="1507.81" y1="890.693" x2="0.00012207" y2="890.693" stroke="#164863" stroke-width="0.25"/>
<line x1="1507.81" y1="804.98" x2="0.00012207" y2="804.98" stroke="#164863" stroke-width="0.25"/>
<line x1="1507.81" y1="719.265" x2="0.00012207" y2="719.265" stroke="#164863" stroke-width="0.25"/>
<line x1="1507.81" y1="633.552" x2="0.00012207" y2="633.552" stroke="#164863" stroke-width="0.25"/>
<line x1="1507.81" y1="547.837" x2="0.00012207" y2="547.837" stroke="#164863" stroke-width="0.25"/>
<line x1="1507.81" y1="462.123" x2="0.00012207" y2="462.123" stroke="#164863" stroke-width="0.25"/>
<line x1="1507.81" y1="376.409" x2="0.00012207" y2="376.409" stroke="#164863" stroke-width="0.25"/>
<line x1="1507.81" y1="290.694" x2="0.00012207" y2="290.694" stroke="#164863" stroke-width="0.25"/>
<line x1="1507.81" y1="204.98" x2="0.00012207" y2="204.98" stroke="#164863" stroke-width="0.25"/>
<line x1="1507.81" y1="119.266" x2="0.00012207" y2="119.266" stroke="#164863" stroke-width="0.25"/>
<line x1="1507.81" y1="33.5521" x2="0.00012207" y2="33.5521" stroke="#164863" stroke-width="0.25"/>
</g>
</g>
<defs>
<radialGradient id="paint0_radial_15_776" cx="0" cy="0" r="1" gradientUnits="userSpaceOnUse" gradientTransform="translate(756 491) rotate(90) scale(491 756)">
<stop stop-color="#D9D9D9"/>
<stop offset="1" stop-color="#404040"/>
</radialGradient>
</defs>
</svg>
